<svg xmlns="http://www.w3.org/2000/svg"
    width='512'
    heigth='512'
    viewport='0 0 512 512'
    
    >
  <path
      fill="currentColor"
      d="M10,3c-3.87,0 -7,3.13 -7,7c0,3.87 3.13,7 7,7s7,-3.13 7,-7C17,6.13 13.87,3 10,3zM6.5,11c-0.55,0 -1,-0.45 -1,-1c0,-0.55 0.45,-1 1,-1s1,0.45 1,1C7.5,10.55 7.05,11 6.5,11zM10,11c-0.55,0 -1,-0.45 -1,-1c0,-0.55 0.45,-1 1,-1s1,0.45 1,1C11,10.55 10.55,11 10,11zM13.5,11c-0.55,0 -1,-0.45 -1,-1c0,-0.55 0.45,-1 1,-1s1,0.45 1,1C14.5,10.55 14.05,11 13.5,11z"/>
</svg>
