<svg xmlns="http://www.w3.org/2000/svg"
    width='512'
    heigth='512'
    viewport='0 0 512 512'
    
    >
  <path
      fill="currentColor"
      d="M18,4l-2,0l0,7.9l2,-2z"/>
  <path
      fill="currentColor"
      d="M4,4h2v16h-2z"/>
  <path
      fill="currentColor"
      d="M10,4h2v4h-2z"/>
  <path
      fill="currentColor"
      d="M10,10h2v4h-2z"/>
  <path
      fill="currentColor"
      d="M10,16h2v4h-2z"/>
  <path
      fill="currentColor"
      d="M22.56,12.59l-1.15,-1.15c-0.59,-0.59 -1.54,-0.59 -2.12,0L14,16.73V20h3.27l5.29,-5.29C23.15,14.12 23.15,13.17 22.56,12.59zM16.58,18.45h-1.03v-1.03L19,13.97L20.03,15L16.58,18.45z"/>
</svg>
