<svg xmlns="http://www.w3.org/2000/svg"
    width='512'
    heigth='512'
    viewport='0 0 512 512'
    
    >
  <path
      fill="currentColor"
      d="M10,3C7.24,3 5,5.24 5,8s2.24,5 5,5s5,-2.24 5,-5S12.76,3 10,3zM10,12c-2.21,0 -4,-1.79 -4,-4c0,-2.21 1.79,-4 4,-4s4,1.79 4,4C14,10.21 12.21,12 10,12z"/>
  <path
      fill="currentColor"
      d="M8.5,6.5m-0.5,0a0.5,0.5 0,1 1,1 0a0.5,0.5 0,1 1,-1 0"/>
  <path
      fill="currentColor"
      d="M11.5,6.5m-0.5,0a0.5,0.5 0,1 1,1 0a0.5,0.5 0,1 1,-1 0"/>
  <path
      fill="currentColor"
      d="M10,5.5m-0.5,0a0.5,0.5 0,1 1,1 0a0.5,0.5 0,1 1,-1 0"/>
  <path
      fill="currentColor"
      d="M7,15h1.5c0.55,0 1,0.45 1,1v1h1v-1c0,-0.55 0.45,-1 1,-1H13v-1H7V15z"/>
</svg>
