<svg xmlns="http://www.w3.org/2000/svg"
    width='512'
    heigth='512'
    viewport='0 0 512 512'
    
    >
  <path
      fill="currentColor"
      d="M2,14.5h16v1.5h-16z"/>
  <path
      fill="currentColor"
      d="M8.1,10.33l1.3,0.75l0.6,-1.04l0.6,1.04l1.3,-0.75l-0.6,-1.04l1.2,0l0,-1.5l-1.2,0l0.6,-1.04l-1.3,-0.75l-0.6,1.04l-0.6,-1.04l-1.3,0.75l0.6,1.04l-1.2,0l0,1.5l1.2,0z"/>
  <path
      fill="currentColor"
      d="M2.9,11.08l0.6,-1.04l0.6,1.04l1.3,-0.75l-0.6,-1.04l1.2,0l0,-1.5l-1.2,0l0.6,-1.04l-1.3,-0.75l-0.6,1.04l-0.6,-1.04l-1.3,0.75l0.6,1.04l-1.2,0l0,1.5l1.2,0l-0.6,1.04z"/>
  <path
      fill="currentColor"
      d="M19,7.79l-1.2,0l0.6,-1.04l-1.3,-0.75l-0.6,1.04l-0.6,-1.04l-1.3,0.75l0.6,1.04l-1.2,0l0,1.5l1.2,0l-0.6,1.04l1.3,0.75l0.6,-1.04l0.6,1.04l1.3,-0.75l-0.6,-1.04l1.2,0z"/>
</svg>
