<svg xmlns="http://www.w3.org/2000/svg"
    width='512'
    heigth='512'
    viewport='0 0 512 512'
    
    >
  <path
      fill="currentColor"
      d="M18.12,11.5c1.13,-0.87 1.87,-2.22 1.87,-3.75c0,-2.62 -2.13,-4.75 -4.75,-4.75c-0.28,0 -0.55,0.04 -0.81,0.08C13.75,1.29 12.03,0 10,0C7.97,0 6.25,1.29 5.57,3.08C5.3,3.04 5.03,3 4.75,3C2.13,3 0,5.13 0,7.75c0,1.53 0.74,2.88 1.87,3.75C0.74,12.37 0,13.72 0,15.25C0,17.87 2.13,20 4.75,20c1.24,0 2.36,-0.49 3.2,-1.28C8.6,18.9 9.29,19 10,19c0.71,0 1.39,-0.1 2.05,-0.27C12.89,19.51 14,20 15.24,20c2.62,0 4.75,-2.13 4.75,-4.75C19.99,13.72 19.25,12.37 18.12,11.5zM10,17.5c-3.58,0 -6.5,-2.92 -6.5,-6.5c0,-3.26 2.41,-5.96 5.55,-6.42C9.29,7.05 11.36,9 13.89,9c0.74,0 1.46,-0.17 2.11,-0.49c0.32,0.77 0.5,1.61 0.5,2.49C16.5,14.58 13.58,17.5 10,17.5z"/>
  <path
      fill="currentColor"
      d="M7.5,11.5m-1,0a1,1 0,1 1,2 0a1,1 0,1 1,-2 0"/>
  <path
      fill="currentColor"
      d="M12.5,11.5m-1,0a1,1 0,1 1,2 0a1,1 0,1 1,-2 0"/>
</svg>
