<svg xmlns="http://www.w3.org/2000/svg"
    width='512'
    heigth='512'
    viewport='0 0 512 512'
    
    >
  <path
      fill="currentColor"
      d="M6,15c1.1,0 2,0.9 2,2s-0.9,2 -2,2 -2,-0.9 -2,-2 0.9,-2 2,-2m0,-2c-2.2,0 -4,1.8 -4,4s1.8,4 4,4 4,-1.8 4,-4 -1.8,-4 -4,-4zM12,5c1.1,0 2,0.9 2,2s-0.9,2 -2,2 -2,-0.9 -2,-2 0.9,-2 2,-2m0,-2C9.8,3 8,4.8 8,7s1.8,4 4,4 4,-1.8 4,-4 -1.8,-4 -4,-4zM18,15c1.1,0 2,0.9 2,2s-0.9,2 -2,2 -2,-0.9 -2,-2 0.9,-2 2,-2m0,-2c-2.2,0 -4,1.8 -4,4s1.8,4 4,4 4,-1.8 4,-4 -1.8,-4 -4,-4z"/>
</svg>
