<svg xmlns="http://www.w3.org/2000/svg"
    width='512'
    heigth='512'
    viewport='0 0 512 512'
    
    >
  <path
      fill="currentColor"
      d="M14.5,5.5m-2.5,0a2.5,2.5 0,1 1,5 0a2.5,2.5 0,1 1,-5 0"/>
  <path
      fill="currentColor"
      d="M12.34,11.51L5.97,5.15c-0.2,-0.2 -0.51,-0.2 -0.71,0L3.15,7.26c-0.2,0.2 -0.2,0.51 0,0.71l6.36,6.36c0.2,0.2 0.51,0.2 0.71,0l2.12,-2.12C12.53,12.02 12.53,11.71 12.34,11.51z"/>
  <path
      fill="currentColor"
      d="M11.6322,14.3389l0.7071,-0.7071l2.8284,2.8284l-0.7071,0.7071z"/>
</svg>
