<svg xmlns="http://www.w3.org/2000/svg"
    width='512'
    heigth='512'
    viewport='0 0 512 512'
    
    >
  <path
      fill="currentColor"
      d="M18,11.46V6l-3,-3H5.5C4.67,3 4,3.67 4,4.5v11C4,16.33 4.67,17 5.5,17h6.97L18,11.46zM13.5,8.5h-7v-3h7V8.5zM13.25,12.5c0,1.24 -1.01,2.25 -2.25,2.25s-2.25,-1.01 -2.25,-2.25s1.01,-2.25 2.25,-2.25S13.25,11.26 13.25,12.5zM17.82,13.77l1.41,1.41L15.41,19H14l0,-1.41L17.82,13.77zM18.31,13.27l0.63,-0.63c0.2,-0.2 0.51,-0.2 0.71,0l0.71,0.71c0.2,0.2 0.2,0.51 0,0.71l-0.63,0.63L18.31,13.27z"/>
</svg>
