<svg xmlns="http://www.w3.org/2000/svg"
    width='512'
    heigth='512'
    viewport='0 0 512 512'
    
    >
  <path
      fill="currentColor"
      d="M11,11h7v5h-7z"/>
  <path
      fill="currentColor"
      d="M11,9h7V4h-7V9zM12.5,5.5h4v2h-4V5.5z"/>
  <path
      fill="currentColor"
      d="M5.57,11.94l1.06,-1.06l2.87,2.87l-2.88,2.88l-1.06,-1.06l1.06,-1.06V14.5H6.25C3.35,14.5 1,12.15 1,9.25C1,6.35 3.35,4 6.25,4H9.5v1.5H6.25C4.18,5.5 2.5,7.18 2.5,9.25C2.5,11.32 4.18,13 6.25,13h0.37v-0.01L5.57,11.94z"/>
</svg>
