<svg xmlns="http://www.w3.org/2000/svg"
    width='512'
    heigth='512'
    viewport='0 0 512 512'
    
    >
  <path
      fill="currentColor"
      d="M14.69,6.01c-0.35,-2.23 -2.25,-3.95 -4.58,-4C10.07,2 10.04,2 10,2C8.19,2 6.6,3.02 5.8,4.52C3.71,4.74 2.05,6.49 2,8.65C1.95,11 3.81,12.94 6.15,13l8.35,0c1.93,0 3.5,-1.57 3.5,-3.5C18,7.63 16.54,6.1 14.69,6.01z"/>
  <path
      fill="currentColor"
      d="M12.55,14l-2.49,2.68l1.78,1.02l-1.97,2.3l1.97,0l2.32,-2.7l-1.72,-0.98l2.16,-2.32z"/>
  <path
      fill="currentColor"
      d="M7.55,14l-2.49,2.68l1.78,1.02l-1.97,2.3l1.97,0l2.32,-2.7l-1.72,-0.98l2.16,-2.32z"/>
</svg>
