<svg xmlns="http://www.w3.org/2000/svg"
    width='512'
    heigth='512'
    viewport='0 0 512 512'
    
    >
  <path
      fill="currentColor"
      d="M5.5,11.5m-0.75,0a0.75,0.75 0,1 1,1.5 0a0.75,0.75 0,1 1,-1.5 0"/>
  <path
      fill="currentColor"
      d="M5.5,14.5m-0.75,0a0.75,0.75 0,1 1,1.5 0a0.75,0.75 0,1 1,-1.5 0"/>
  <path
      fill="currentColor"
      d="M5.5,8.5m-0.75,0a0.75,0.75 0,1 1,1.5 0a0.75,0.75 0,1 1,-1.5 0"/>
  <path
      fill="currentColor"
      d="M3,8.5m-0.5,0a0.5,0.5 0,1 1,1 0a0.5,0.5 0,1 1,-1 0"/>
  <path
      fill="currentColor"
      d="M5.5,5.5m-0.75,0a0.75,0.75 0,1 1,1.5 0a0.75,0.75 0,1 1,-1.5 0"/>
  <path
      fill="currentColor"
      d="M3,11.5m-0.5,0a0.5,0.5 0,1 1,1 0a0.5,0.5 0,1 1,-1 0"/>
  <path
      fill="currentColor"
      d="M8.5,17m-0.5,0a0.5,0.5 0,1 1,1 0a0.5,0.5 0,1 1,-1 0"/>
  <path
      fill="currentColor"
      d="M8.5,3m-0.5,0a0.5,0.5 0,1 1,1 0a0.5,0.5 0,1 1,-1 0"/>
  <path
      fill="currentColor"
      d="M8.5,5.5m-0.75,0a0.75,0.75 0,1 1,1.5 0a0.75,0.75 0,1 1,-1.5 0"/>
  <path
      fill="currentColor"
      d="M8.5,11.5m-1,0a1,1 0,1 1,2 0a1,1 0,1 1,-2 0"/>
  <path
      fill="currentColor"
      d="M8.5,8.5m-1,0a1,1 0,1 1,2 0a1,1 0,1 1,-2 0"/>
  <path
      fill="currentColor"
      d="M8.5,14.5m-0.75,0a0.75,0.75 0,1 1,1.5 0a0.75,0.75 0,1 1,-1.5 0"/>
  <path
      fill="currentColor"
      d="M10,3v14c3.87,0 7,-3.13 7,-7C17,6.13 13.87,3 10,3z"/>
</svg>
