<svg xmlns="http://www.w3.org/2000/svg"
    width='512'
    heigth='512'
    viewport='0 0 512 512'
    
    >
  <path
      fill="currentColor"
      d="M4,9h5V4H4V9zM4.94,4.94h3.12v3.12H4.94V4.94z"/>
  <path
      fill="currentColor"
      d="M4,16h5v-5H4V16zM4.94,11.94h3.12v3.12H4.94V11.94z"/>
  <path
      fill="currentColor"
      d="M11,4v5h5V4H11zM15.06,8.06h-3.12V4.94h3.12V8.06z"/>
  <path
      fill="currentColor"
      d="M15,15h1v1h-1z"/>
  <path
      fill="currentColor"
      d="M15,13h1v1h-1z"/>
  <path
      fill="currentColor"
      d="M15,11h1v1h-1z"/>
  <path
      fill="currentColor"
      d="M12,12h1v1h-1z"/>
  <path
      fill="currentColor"
      d="M11,11h1v1h-1z"/>
  <path
      fill="currentColor"
      d="M13,13h1v1h-1z"/>
  <path
      fill="currentColor"
      d="M14,14h1v1h-1z"/>
  <path
      fill="currentColor"
      d="M13,11h1v1h-1z"/>
  <path
      fill="currentColor"
      d="M14,12h1v1h-1z"/>
  <path
      fill="currentColor"
      d="M11,13h1v1h-1z"/>
  <path
      fill="currentColor"
      d="M12,14h1v1h-1z"/>
  <path
      fill="currentColor"
      d="M11,15h1v1h-1z"/>
  <path
      fill="currentColor"
      d="M13,15h1v1h-1z"/>
</svg>
