<svg xmlns="http://www.w3.org/2000/svg"
    width='512'
    heigth='512'
    viewport='0 0 512 512'
    
    >
  <path
      fill="currentColor"
      d="M17.5,3h-15C1.67,3 1,3.67 1,4.5v11C1,16.33 1.67,17 2.5,17h15c0.83,0 1.5,-0.67 1.5,-1.5v-11C19,3.67 18.33,3 17.5,3zM10.75,6.5h1.5V8h-1.5V6.5zM10.75,9.5h1.5V11h-1.5V9.5zM7.75,6.5h1.5V8h-1.5V6.5zM7.75,9.5h1.5V11h-1.5V9.5zM6.25,11h-1.5V9.5h1.5V11zM6.25,8h-1.5V6.5h1.5V8zM13,13.5H7v-1h6V13.5zM15.25,11h-1.5V9.5h1.5V11zM15.25,8h-1.5V6.5h1.5V8z"/>
</svg>
