<svg xmlns="http://www.w3.org/2000/svg"
    width='512'
    heigth='512'
    viewport='0 0 512 512'
    
    >
  <path
      fill="currentColor"
      d="M15,10.75c-2.21,0 -4,1.79 -4,4c0,2.21 1.79,4 4,4s4,-1.79 4,-4C19,12.54 17.21,10.75 15,10.75zM17,15.25h-1.5v1.5h-1v-1.5H13v-1h1.5v-1.5h1v1.5H17V15.25z"/>
  <path
      fill="currentColor"
      d="M5.5,5h11v1.5h-11z"/>
  <path
      fill="currentColor"
      d="M5.5,13.5V15h4.01c0,-0.08 -0.01,-0.17 -0.01,-0.25c0,-0.43 0.05,-0.85 0.15,-1.25H5.5z"/>
  <path
      fill="currentColor"
      d="M15,9.25H5.5v1.5h5.74C12.22,9.82 13.54,9.25 15,9.25z"/>
  <path
      fill="currentColor"
      d="M3,5.75m-1,0a1,1 0,1 1,2 0a1,1 0,1 1,-2 0"/>
  <path
      fill="currentColor"
      d="M3,14.25m-1,0a1,1 0,1 1,2 0a1,1 0,1 1,-2 0"/>
  <path
      fill="currentColor"
      d="M3,10m-1,0a1,1 0,1 1,2 0a1,1 0,1 1,-2 0"/>
</svg>
