<svg xmlns="http://www.w3.org/2000/svg"
    width='512'
    heigth='512'
    viewport='0 0 512 512'
    
    >
  <path
      fill="currentColor"
      d="M20,3H4C2.89,3 2,3.89 2,5v12c0,1.1 0.89,2 2,2h4v2h8v-2h4c1.1,0 2,-0.9 2,-2V5C22,3.89 21.1,3 20,3zM20,17H4V5h16V17z"/>
  <path
      fill="currentColor"
      d="M6,8.25h8v1.5h-8z"/>
  <path
      fill="currentColor"
      d="M16.5,9.75l1.5,0l0,-1.5l-1.5,0l0,-1.25l-1.5,0l0,4l1.5,0z"/>
  <path
      fill="currentColor"
      d="M10,12.25h8v1.5h-8z"/>
  <path
      fill="currentColor"
      d="M7.5,15l1.5,0l0,-4l-1.5,0l0,1.25l-1.5,0l0,1.5l1.5,0z"/>
</svg>
