<svg xmlns="http://www.w3.org/2000/svg"
    width='512'
    heigth='512'
    viewport='0 0 512 512'
    
    >
  <path
      fill="currentColor"
      d="M19,7c0,-1.1 -0.9,-2 -2,-2h-3v2h3v2.65L13.52,14H10V9H6c-2.21,0 -4,1.79 -4,4v3h2c0,1.66 1.34,3 3,3s3,-1.34 3,-3h4.48L19,10.35V7zM7,17c-0.55,0 -1,-0.45 -1,-1h2C8,16.55 7.55,17 7,17z"/>
  <path
      fill="currentColor"
      d="M5,6h5v2h-5z"/>
  <path
      fill="currentColor"
      d="M19,13c-1.66,0 -3,1.34 -3,3s1.34,3 3,3s3,-1.34 3,-3S20.66,13 19,13zM19,17c-0.55,0 -1,-0.45 -1,-1s0.45,-1 1,-1s1,0.45 1,1S19.55,17 19,17z"/>
</svg>
