<svg xmlns="http://www.w3.org/2000/svg"
    width='512'
    heigth='512'
    viewport='0 0 512 512'
    
    >
  <path
      fill="currentColor"
      d="M4,4h1v12h-1z"/>
  <path
      fill="currentColor"
      d="M8.5,4h1v2h-1z"/>
  <path
      fill="currentColor"
      d="M8.5,14h1v2h-1z"/>
  <path
      fill="currentColor"
      d="M8.5,9h1v2h-1z"/>
  <path
      fill="currentColor"
      d="M18.07,9.64l-0.71,-0.71c-0.39,-0.39 -1.02,-0.39 -1.41,0L11,13.88V16h2.12l4.95,-4.95C18.46,10.66 18.46,10.03 18.07,9.64zM12.71,15H12v-0.71l3.24,-3.24l0.71,0.71L12.71,15z"/>
  <path
      fill="currentColor"
      d="M14,4l-1,0l0,6.46l1,-1z"/>
</svg>
