<svg xmlns="http://www.w3.org/2000/svg"
    width='512'
    heigth='512'
    viewport='0 0 512 512'
    
    >
  <path
      fill="currentColor"
      d="M14,10V3.26C13.35,3.09 12.68,3 12,3c-4.2,0 -8,3.22 -8,8.2c0,3.32 2.67,7.25 8,11.8c5.33,-4.55 8,-8.48 8,-11.8c0,-0.41 -0.04,-0.81 -0.09,-1.2H14zM12,13c-1.1,0 -2,-0.9 -2,-2c0,-1.1 0.9,-2 2,-2s2,0.9 2,2C14,12.1 13.1,13 12,13z"/>
  <path
      fill="currentColor"
      d="M22.54,2.88l-1.42,-1.42l-2.12,2.13l-2.12,-2.13l-1.42,1.42l2.13,2.12l-2.13,2.12l1.42,1.42l2.12,-2.13l2.12,2.13l1.42,-1.42l-2.13,-2.12z"/>
</svg>
