<svg xmlns="http://www.w3.org/2000/svg"
    width='512'
    heigth='512'
    viewport='0 0 512 512'
    
    >
  <path
      fill="currentColor"
      d="M5,15.5H3.5V14H5V15.5zM5,12.33H3.5v-1.5H5V12.33zM5,9.17H3.5v-1.5H5V9.17zM5,6H3.5V4.5H5V6zM8.5,15.5H7V14h1.5V15.5zM8.5,12.33H7v-1.5h1.5V12.33zM8.5,9.17H7v-1.5h1.5V9.17zM7,6V4.5h1.5V6H7zM18,12.5V6h-8V3H2v14h11.5v-1.5H10v-1.67h1.5v-1.5H10v-1.67h1.5v-1.5H10V7.5h6.5v5H18zM15,9.17h-1.5v1.5H15V9.17zM15,12.33h-1.5v1.5H15V12.33zM18,15.5V14h-1.5v1.5H15V17h1.5v1.5H18V17h1.5v-1.5H18z"/>
</svg>
