<svg xmlns="http://www.w3.org/2000/svg"
    width='512'
    heigth='512'
    viewport='0 0 512 512'
    
    >
  <path
      fill="currentColor"
      d="M5,7v10h3v-3c0,-1.1 0.9,-2 2,-2s2,0.9 2,2v3h3V7l-5,-4L5,7zM11.25,8.25c0,0.69 -0.56,1.25 -1.25,1.25S8.75,8.94 8.75,8.25S9.31,7 10,7S11.25,7.56 11.25,8.25z"/>
  <path
      fill="currentColor"
      d="M17.5,4C16.67,4 16,4.67 16,5.5v1.17h3V5.5C19,4.67 18.33,4 17.5,4z"/>
  <path
      fill="currentColor"
      d="M16,7.5h3v9.5h-3z"/>
  <path
      fill="currentColor"
      d="M2.5,4C1.67,4 1,4.67 1,5.5v1.17h3V5.5C4,4.67 3.33,4 2.5,4z"/>
  <path
      fill="currentColor"
      d="M1,7.5h3v9.5h-3z"/>
</svg>
