<svg xmlns="http://www.w3.org/2000/svg"
    width='512'
    heigth='512'
    viewport='0 0 512 512'
    
    >
  <path
      fill="currentColor"
      d="M5.5,10.5c0.55,0 1,0.45 1,1s-0.45,1 -1,1s-1,-0.45 -1,-1S4.95,10.5 5.5,10.5zM4.5,5.5c0,0.55 0.45,1 1,1s1,-0.45 1,-1s-0.45,-1 -1,-1S4.5,4.95 4.5,5.5zM13.5,11.5c0,0.55 0.45,1 1,1s1,-0.45 1,-1s-0.45,-1 -1,-1S13.5,10.95 13.5,11.5zM13.5,5.5c0,0.55 0.45,1 1,1s1,-0.45 1,-1s-0.45,-1 -1,-1S13.5,4.95 13.5,5.5zM6.75,14.5c0,0.55 0.45,1 1,1s1,-0.45 1,-1s-0.45,-1 -1,-1S6.75,13.95 6.75,14.5zM6.75,8.5c0,0.55 0.45,1 1,1s1,-0.45 1,-1s-0.45,-1 -1,-1S6.75,7.95 6.75,8.5zM9,11.5c0,0.55 0.45,1 1,1s1,-0.45 1,-1s-0.45,-1 -1,-1S9,10.95 9,11.5zM9,5.5c0,0.55 0.45,1 1,1s1,-0.45 1,-1s-0.45,-1 -1,-1S9,4.95 9,5.5zM11.25,14.5c0,0.55 0.45,1 1,1s1,-0.45 1,-1s-0.45,-1 -1,-1S11.25,13.95 11.25,14.5zM11.25,8.5c0,0.55 0.45,1 1,1s1,-0.45 1,-1s-0.45,-1 -1,-1S11.25,7.95 11.25,8.5z"/>
</svg>
