<svg xmlns="http://www.w3.org/2000/svg"
    width='512'
    heigth='512'
    viewport='0 0 512 512'
    
    >
  <path
      fill="currentColor"
      d="M6,15.5C6,15.78 6.22,16 6.5,16h7c0.28,0 0.5,-0.22 0.5,-0.5V14H6V15.5z"/>
  <path
      fill="currentColor"
      d="M14,7c-0.55,0 -1,0.45 -1,1l-0.01,-3c0,-0.55 -0.45,-1 -1,-1H6C5.45,4 5,4.45 5,5v4.57c0.01,0.07 0.01,0.13 0.02,0.2l0.57,2.83C5.63,12.83 5.84,13 6.08,13h7.85c0.23,0 0.45,-0.18 0.49,-0.4l0.57,-2.83c0.01,-0.07 0.01,-0.13 0.02,-0.2V8C15,7.45 14.55,7 14,7zM11,9H7V7h4V9z"/>
</svg>
