<svg xmlns="http://www.w3.org/2000/svg"
    width='512'
    heigth='512'
    viewport='0 0 512 512'
    
    >
  <path
      fill="currentColor"
      d="M15.98,5.82L10,2.5L4.02,5.82l3.8,2.11C8.37,7.36 9.14,7 10,7s1.63,0.36 2.17,0.93L15.98,5.82zM8.5,10c0,-0.83 0.67,-1.5 1.5,-1.5s1.5,0.67 1.5,1.5s-0.67,1.5 -1.5,1.5S8.5,10.83 8.5,10zM9.25,17.08l-6,-3.33V7.11L7.1,9.24C7.03,9.49 7,9.74 7,10c0,1.4 0.96,2.57 2.25,2.91V17.08zM10.75,17.08v-4.18C12.04,12.57 13,11.4 13,10c0,-0.26 -0.03,-0.51 -0.1,-0.76l3.85,-2.14l0,6.64L10.75,17.08z"/>
</svg>
