<svg xmlns="http://www.w3.org/2000/svg"
    width='512'
    heigth='512'
    viewport='0 0 512 512'
    
    >
  <path
      fill="currentColor"
      d="M15.05,12.81L6.56,4.32c-0.39,-0.39 -1.02,-0.39 -1.41,0L2.32,7.15c-0.39,0.39 -0.39,1.02 0,1.41l8.49,8.49c0.39,0.39 1.02,0.39 1.41,0l2.83,-2.83C15.44,13.83 15.44,13.2 15.05,12.81z"/>
  <path
      fill="currentColor"
      d="M14.3412,17.7562l1.4142,-1.4142l4.2426,4.2426l-1.4142,1.4142z"/>
  <path
      fill="currentColor"
      d="M18.5,5.5m-3.5,0a3.5,3.5 0,1 1,7 0a3.5,3.5 0,1 1,-7 0"/>
</svg>
