<svg xmlns="http://www.w3.org/2000/svg"
    width='512'
    heigth='512'
    viewport='0 0 512 512'
    
    >
  <path
      fill="currentColor"
      d="M8.5,4h3v3h-3z"/>
  <path
      fill="currentColor"
      d="M4,13h3v3h-3z"/>
  <path
      fill="currentColor"
      d="M4,8.5h3v3h-3z"/>
  <path
      fill="currentColor"
      d="M4,4h3v3h-3z"/>
  <path
      fill="currentColor"
      d="M16.41,9.47l-0.88,-0.88c-0.12,-0.12 -0.32,-0.12 -0.44,0l-0.66,0.66l1.31,1.31l0.66,-0.66C16.53,9.78 16.53,9.59 16.41,9.47z"/>
  <path
      fill="currentColor"
      d="M9,14.69l0,1.31l1.31,0l5,-5l-1.31,-1.31z"/>
  <path
      fill="currentColor"
      d="M11.5,10.77l0,-2.27l-3,0l0,3l2.27,0z"/>
  <path
      fill="currentColor"
      d="M13,4h3v3h-3z"/>
</svg>
