<svg xmlns="http://www.w3.org/2000/svg"
    width='512'
    heigth='512'
    viewport='0 0 512 512'
    
    >
  <path
      fill="currentColor"
      d="M10,6m-1,0a1,1 0,1 1,2 0a1,1 0,1 1,-2 0"/>
  <path
      fill="currentColor"
      d="M10,8C9.34,8 8,8.23 8,9v3h1v3h2v-3h1V9C12,8.24 10.66,8 10,8z"/>
  <path
      fill="currentColor"
      d="M10,2c-4.42,0 -8,3.58 -8,8s3.58,8 8,8s8,-3.58 8,-8S14.42,2 10,2zM10,16.5c-3.58,0 -6.5,-2.92 -6.5,-6.5S6.42,3.5 10,3.5s6.5,2.92 6.5,6.5S13.58,16.5 10,16.5z"/>
</svg>
