<svg xmlns="http://www.w3.org/2000/svg"
    width='512'
    heigth='512'
    viewport='0 0 512 512'
    
    >
  <path
      fill="currentColor"
      d="M7.5,10.5m-1,0a1,1 0,1 1,2 0a1,1 0,1 1,-2 0"/>
  <path
      fill="currentColor"
      d="M16.12,7.84c0.24,0.68 0.38,1.4 0.38,2.16c0,0.92 -0.2,1.8 -0.55,2.6l1.12,1.12C17.66,12.61 18,11.34 18,10c0,-4.42 -3.58,-8 -8,-8C8.66,2 7.39,2.34 6.28,2.92l3.89,3.89C12.09,7.96 14.26,8.2 16.12,7.84z"/>
  <path
      fill="currentColor"
      d="M2.49,3.37l1.44,1.44C2.73,6.2 2,8.02 2,10c0,4.42 3.58,8 8,8c1.98,0 3.8,-0.73 5.19,-1.92l1.44,1.44l1.06,-1.06L3.55,2.31L2.49,3.37zM14.13,15.02c-1.12,0.93 -2.56,1.48 -4.13,1.48c-3.58,0 -6.5,-2.92 -6.5,-6.5c0,-0.14 0.03,-0.28 0.04,-0.42c1.21,-0.41 2.29,-1.1 3.16,-1.99L14.13,15.02z"/>
</svg>
