<svg xmlns="http://www.w3.org/2000/svg"
    width='512'
    heigth='512'
    viewport='0 0 512 512'
    
    >
  <path
      fill="currentColor"
      d="M13.79,8l1.8,-3l-1.8,-3l-3.58,0l-1.8,3l1.8,3z"/>
  <path
      fill="currentColor"
      d="M10.21,9l-1.8,3l1.8,3l3.58,0l1.8,-3l-1.8,-3z"/>
  <path
      fill="currentColor"
      d="M16.45,11.51l3.59,0l1.79,-3l-1.79,-3l-3.59,0l-1.8,3z"/>
  <path
      fill="currentColor"
      d="M20.04,12.51l-3.59,0l-1.8,3l1.8,3l3.59,0l1.79,-3z"/>
  <path
      fill="currentColor"
      d="M7.55,11.51l1.8,-3l-1.8,-3l-3.59,0l-1.79,3l1.79,3z"/>
  <path
      fill="currentColor"
      d="M7.55,12.51l-3.59,0l-1.79,3l1.79,3l3.59,0l1.8,-3z"/>
  <path
      fill="currentColor"
      d="M10.21,16l-1.8,3l1.8,3l3.58,0l1.8,-3l-1.8,-3z"/>
</svg>
