<svg xmlns="http://www.w3.org/2000/svg"
    width='512'
    heigth='512'
    viewport='0 0 512 512'
    
    >
  <path
      fill="currentColor"
      d="M10,16c-3.31,0 -6,-2.69 -6,-6c0,-3.05 2.3,-5.58 5.25,-5.95V2.04C5.18,2.42 2,5.83 2,10c0,4.42 3.58,8 8,8c2.69,0 5.07,-1.33 6.52,-3.37l-1.74,-1.01C13.68,15.06 11.95,16 10,16z"/>
  <path
      fill="currentColor"
      d="M10.75,2.04v2.01C13.7,4.42 16,6.95 16,10c0,0.82 -0.17,1.61 -0.47,2.33l1.74,1C17.73,12.31 18,11.19 18,10C18,5.83 14.82,2.42 10.75,2.04z"/>
  <path
      fill="currentColor"
      d="M9.25,6.5l0,2.75l-2.75,0l0,1.5l2.75,0l0,2.75l1.5,0l0,-2.75l2.75,0l0,-1.5l-2.75,0l0,-2.75z"/>
</svg>
