<svg xmlns="http://www.w3.org/2000/svg"
    width='512'
    heigth='512'
    viewport='0 0 512 512'
    
    >
  <path
      fill="currentColor"
      d="M17,19.22H5V7h7V5H5C3.9,5 3,5.9 3,7v12c0,1.1 0.9,2 2,2h12c1.1,0 2,-0.9 2,-2v-7h-2V19.22z"/>
  <path
      fill="currentColor"
      d="M19,2h-2v3h-3c0.01,0.01 0,2 0,2h3v2.99c0.01,0.01 2,0 2,0V7h3V5h-3V2z"/>
  <path
      fill="currentColor"
      d="M7,9h8v2h-8z"/>
  <path
      fill="currentColor"
      d="M7,12l0,2l8,0l0,-2l-3,0z"/>
  <path
      fill="currentColor"
      d="M7,15h8v2h-8z"/>
</svg>
