<svg xmlns="http://www.w3.org/2000/svg"
    width='512'
    heigth='512'
    viewport='0 0 512 512'
    
    >
  <path
      fill="currentColor"
      d="M14.5,15h-9V5h9v1H16V2.5C16,1.67 15.33,1 14.5,1h-9C4.67,1 4,1.67 4,2.5v15C4,18.33 4.67,19 5.5,19h9c0.83,0 1.5,-0.67 1.5,-1.5V14h-1.5V15z"/>
  <path
      fill="currentColor"
      d="M17.03,7.97l0.47,1.03l0.47,-1.03l1.03,-0.47l-1.03,-0.47l-0.47,-1.03l-0.47,1.03l-1.03,0.47z"/>
  <path
      fill="currentColor"
      d="M13,7l-0.94,2.06l-2.06,0.94l2.06,0.94l0.94,2.06l0.94,-2.06l2.06,-0.94l-2.06,-0.94z"/>
  <path
      fill="currentColor"
      d="M17.5,11l-0.47,1.03l-1.03,0.47l1.03,0.47l0.47,1.03l0.47,-1.03l1.03,-0.47l-1.03,-0.47z"/>
</svg>
