<svg xmlns="http://www.w3.org/2000/svg"
    width='512'
    heigth='512'
    viewport='0 0 512 512'
    
    >
  <path
      fill="currentColor"
      d="M9.25,8h1.5v6.5h-1.5z"/>
  <path
      fill="currentColor"
      d="M4,8h1.5v6.5h-1.5z"/>
  <path
      fill="currentColor"
      d="M18,5l-8,-4l-8,4l0,2l16,0z"/>
  <path
      fill="currentColor"
      d="M12.5,15.5H2V17h10.66C12.61,16.78 12.5,16.29 12.5,15.5z"/>
  <path
      fill="currentColor"
      d="M16,10.82l0,-2.82l-1.5,0l0,3.57z"/>
  <path
      fill="currentColor"
      d="M17,12l-3,1.5v2.14c0,2.02 1.28,3.91 3,4.36c1.72,-0.46 3,-2.35 3,-4.36V13.5L17,12zM16.43,17.5l-1.55,-1.54l0.71,-0.71l0.82,0.81L18.39,14l0.73,0.68L16.43,17.5z"/>
</svg>
