<svg xmlns="http://www.w3.org/2000/svg"
    width='512'
    heigth='512'
    viewport='0 0 512 512'
    
    >
  <path
      fill="currentColor"
      d="M15,4H9v6l1.8,-1.8c1.22,0.91 2.01,2.35 2.01,3.99c0,0.75 -0.18,1.45 -0.47,2.09c1.49,-0.98 2.47,-2.67 2.47,-4.59c0,-1.52 -0.62,-2.89 -1.61,-3.89L15,4z"/>
  <path
      fill="currentColor"
      d="M7.19,7.84c0,-0.75 0.18,-1.45 0.47,-2.09c-1.49,0.98 -2.47,2.67 -2.47,4.59c0,1.52 0.62,2.89 1.61,3.89L5,16h6v-5.97l-1.8,1.8C7.99,10.91 7.19,9.47 7.19,7.84z"/>
</svg>
