<svg xmlns="http://www.w3.org/2000/svg"
    width='512'
    heigth='512'
    viewport='0 0 512 512'
    
    >
  <path
      fill="currentColor"
      d="M16.5,3h-13C2.67,3 2,3.67 2,4.5v9C2,14.33 2.67,15 3.5,15H7v2h6v-2h3.5c0.83,0 1.5,-0.67 1.5,-1.5v-9C18,3.67 17.33,3 16.5,3zM16.5,13.5h-13v-9h13V13.5z"/>
  <path
      fill="currentColor"
      d="M5,7h7v1h-7z"/>
  <path
      fill="currentColor"
      d="M14,8l1,0l0,-1l-1,0l0,-1l-1,0l0,3l1,0z"/>
  <path
      fill="currentColor"
      d="M8,10h7v1h-7z"/>
  <path
      fill="currentColor"
      d="M6,12l1,0l0,-3l-1,0l0,1l-1,0l0,1l1,0z"/>
</svg>
