<svg xmlns="http://www.w3.org/2000/svg"
    width='512'
    heigth='512'
    viewport='0 0 512 512'
    
    >
  <path
      fill="currentColor"
      d="M3,11h8V3H3V11zM5,5h4v4H5V5z"/>
  <path
      fill="currentColor"
      d="M3,21h8v-8H3V21zM5,15h4v4H5V15z"/>
  <path
      fill="currentColor"
      d="M13,3v8h8V3H13zM19,9h-4V5h4V9z"/>
  <path
      fill="currentColor"
      d="M19,19h2v2h-2z"/>
  <path
      fill="currentColor"
      d="M13,13h2v2h-2z"/>
  <path
      fill="currentColor"
      d="M15,15h2v2h-2z"/>
  <path
      fill="currentColor"
      d="M13,17h2v2h-2z"/>
  <path
      fill="currentColor"
      d="M15,19h2v2h-2z"/>
  <path
      fill="currentColor"
      d="M17,17h2v2h-2z"/>
  <path
      fill="currentColor"
      d="M17,13h2v2h-2z"/>
  <path
      fill="currentColor"
      d="M19,15h2v2h-2z"/>
</svg>
