<svg xmlns="http://www.w3.org/2000/svg"
    width='512'
    heigth='512'
    viewport='0 0 512 512'
    
    >
  <path
      fill="currentColor"
      d="M13,8c0,-0.55 -0.45,-1 -1,-1H9C8.45,7 8,7.45 8,8v4c0,0.55 0.45,1 1,1h3c0.55,0 1,-0.45 1,-1V9.5h-3v1h2V12H9V8H13z"/>
  <path
      fill="currentColor"
      d="M6,7l-1,0l0,3l-2,0l0,-3l-1,0l0,4l3,0l0,2l1,0l0,-2l1,0l0,-1l-1,0z"/>
  <path
      fill="currentColor"
      d="M16.5,9.5l0,-1.5l-1,0l0,1.5l-1.5,0l0,1l1.5,0l0,1.5l1,0l0,-1.5l1.5,0l0,-1z"/>
</svg>
