<svg xmlns="http://www.w3.org/2000/svg"
    width='512'
    heigth='512'
    viewport='0 0 512 512'
    
    >
  <path
      fill="currentColor"
      d="M19,3H5C3.9,3 3,3.9 3,5v14c0,1.1 0.9,2 2,2h14c1.1,0 2,-0.9 2,-2V5C21,3.9 20.1,3 19,3zM12,12c-1.66,0 -3,-1.34 -3,-3s1.34,-3 3,-3s3,1.34 3,3S13.66,12 12,12z"/>
  <path
      fill="currentColor"
      d="M10,8.5h1v1h-1z"/>
  <path
      fill="currentColor"
      d="M11.5,8.5h1v1h-1z"/>
  <path
      fill="currentColor"
      d="M13,8.5h1v1h-1z"/>
</svg>
