<svg xmlns="http://www.w3.org/2000/svg"
    width='512'
    heigth='512'
    viewport='0 0 512 512'
    
    >
  <path
      fill="currentColor"
      d="M8,4h1.5v1.5h-1.5z"/>
  <path
      fill="currentColor"
      d="M6.5,8.5l0,-1.5l1.5,0l0,-1.5l-1.5,0l0,-1.5l-1.5,0l0,12l1.5,0l0,-6l1.5,0l0,-1.5z"/>
  <path
      fill="currentColor"
      d="M8,10h1.5v1.5h-1.5z"/>
  <path
      fill="currentColor"
      d="M8,7h1.5v1.5h-1.5z"/>
  <path
      fill="currentColor"
      d="M11,4h1.5v1.5h-1.5z"/>
  <path
      fill="currentColor"
      d="M9.5,5.5h1.5v1.5h-1.5z"/>
  <path
      fill="currentColor"
      d="M9.5,8.5h1.5v1.5h-1.5z"/>
  <path
      fill="currentColor"
      d="M11,10h1.5v1.5h-1.5z"/>
  <path
      fill="currentColor"
      d="M11,7h1.5v1.5h-1.5z"/>
  <path
      fill="currentColor"
      d="M14,4h1.5v1.5h-1.5z"/>
  <path
      fill="currentColor"
      d="M12.5,5.5h1.5v1.5h-1.5z"/>
  <path
      fill="currentColor"
      d="M12.5,8.5h1.5v1.5h-1.5z"/>
  <path
      fill="currentColor"
      d="M14,10h1.5v1.5h-1.5z"/>
  <path
      fill="currentColor"
      d="M14,7h1.5v1.5h-1.5z"/>
</svg>
