<svg xmlns="http://www.w3.org/2000/svg"
    width='512'
    heigth='512'
    viewport='0 0 512 512'
    
    >
  <path
      fill="currentColor"
      d="M10.75,10l0,3.25l6.36,0l-0.61,-3.25z"/>
  <path
      fill="currentColor"
      d="M2.89,13.25l6.36,0l0,-3.25l-5.75,0z"/>
  <path
      fill="currentColor"
      d="M2,18l7.25,0l0,-3.25l-6.64,0z"/>
  <path
      fill="currentColor"
      d="M17.39,14.75l-6.64,0l0,3.25l7.25,0z"/>
  <path
      fill="currentColor"
      d="M9.25,7h1.5v2h-1.5z"/>
  <path
      fill="currentColor"
      d="M13.224,6.28l1.061,-1.061l1.414,1.414l-1.061,1.061z"/>
  <path
      fill="currentColor"
      d="M4.305,6.638l1.414,-1.414l1.061,1.061l-1.414,1.414z"/>
  <path
      fill="currentColor"
      d="M3,2.05h2v1.5h-2z"/>
  <path
      fill="currentColor"
      d="M15,2.05h2v1.5h-2z"/>
  <path
      fill="currentColor"
      d="M10,6c2.21,0 4,-1.79 4,-4H6C6,4.21 7.79,6 10,6z"/>
</svg>
