<svg xmlns="http://www.w3.org/2000/svg"
    width='512'
    heigth='512'
    viewport='0 0 512 512'
    
    >
  <path
      fill="currentColor"
      d="M18.01,16.94l-4.27,-4.27C14.53,11.65 15,10.38 15,9c0,-3.31 -2.69,-6 -6,-6C6.03,3 3.57,5.16 3.09,8h1.53C5.08,6 6.86,4.5 9,4.5c2.48,0 4.5,2.02 4.5,4.5s-2.02,4.5 -4.5,4.5c-1.76,0 -3.27,-1.02 -4.01,-2.5H3.35c0.82,2.33 3.04,4 5.65,4c1.39,0 2.66,-0.48 3.68,-1.27L16.95,18L18.01,16.94z"/>
  <path
      fill="currentColor"
      d="M7,7.56l1.11,4.44l1.25,0l0.93,-2.8l0.9,1.8l1.31,0l0,-1l-0.69,0l-1,-2l-1.17,0l-0.86,2.57l-1.14,-4.57l-1.28,0l-0.75,3l-4.61,0l0,1l5.39,0z"/>
</svg>
