<svg xmlns="http://www.w3.org/2000/svg"
    width='512'
    heigth='512'
    viewport='0 0 512 512'
    
    >
  <path
      fill="currentColor"
      d="M16.5,2h-13C2.67,2 2,2.67 2,3.5v13C2,17.33 2.67,18 3.5,18h13c0.83,0 1.5,-0.67 1.5,-1.5v-13C18,2.67 17.33,2 16.5,2zM15,14h-1.5v-1h-7v1H5v-3.5c0,-0.65 0.42,-1.2 1,-1.41V7.5C6,6.67 6.67,6 7.5,6h5C13.33,6 14,6.67 14,7.5v1.59c0.58,0.21 1,0.76 1,1.41V14z"/>
  <path
      fill="currentColor"
      d="M10.75,7.5h1.75v1.5h-1.75z"/>
  <path
      fill="currentColor"
      d="M7.5,7.5h1.75v1.5h-1.75z"/>
  <path
      fill="currentColor"
      d="M6.5,10.5h7v1h-7z"/>
</svg>
