<svg xmlns="http://www.w3.org/2000/svg"
    width='512'
    heigth='512'
    viewport='0 0 512 512'
    
    >
  <path
      fill="currentColor"
      d="M12,3v18c4.97,0 9,-4.03 9,-9C21,7.03 16.97,3 12,3z"/>
  <path
      fill="currentColor"
      d="M6,14m-1,0a1,1 0,1 1,2 0a1,1 0,1 1,-2 0"/>
  <path
      fill="currentColor"
      d="M6,18m-1,0a1,1 0,1 1,2 0a1,1 0,1 1,-2 0"/>
  <path
      fill="currentColor"
      d="M6,10m-1,0a1,1 0,1 1,2 0a1,1 0,1 1,-2 0"/>
  <path
      fill="currentColor"
      d="M3,10m-0.5,0a0.5,0.5 0,1 1,1 0a0.5,0.5 0,1 1,-1 0"/>
  <path
      fill="currentColor"
      d="M6,6m-1,0a1,1 0,1 1,2 0a1,1 0,1 1,-2 0"/>
  <path
      fill="currentColor"
      d="M3,14m-0.5,0a0.5,0.5 0,1 1,1 0a0.5,0.5 0,1 1,-1 0"/>
  <path
      fill="currentColor"
      d="M10,21m-0.5,0a0.5,0.5 0,1 1,1 0a0.5,0.5 0,1 1,-1 0"/>
  <path
      fill="currentColor"
      d="M10,3m-0.5,0a0.5,0.5 0,1 1,1 0a0.5,0.5 0,1 1,-1 0"/>
  <path
      fill="currentColor"
      d="M10,6m-1,0a1,1 0,1 1,2 0a1,1 0,1 1,-2 0"/>
  <path
      fill="currentColor"
      d="M10,14m-1.5,0a1.5,1.5 0,1 1,3 0a1.5,1.5 0,1 1,-3 0"/>
  <path
      fill="currentColor"
      d="M10,10m-1.5,0a1.5,1.5 0,1 1,3 0a1.5,1.5 0,1 1,-3 0"/>
  <path
      fill="currentColor"
      d="M10,18m-1,0a1,1 0,1 1,2 0a1,1 0,1 1,-2 0"/>
</svg>
