<svg xmlns="http://www.w3.org/2000/svg"
    width='512'
    heigth='512'
    viewport='0 0 512 512'
    
    >
  <path
      fill="currentColor"
      d="M12.34,10.36L11.5,8.82l-2.34,4.29C9.03,13.35 8.77,13.5 8.5,13.5s-0.53,-0.15 -0.66,-0.39l-1.29,-2.36H2V12v1v1.4C2,15.28 2.72,16 3.6,16h12.8c0.88,0 1.6,-0.72 1.6,-1.6V13v-1v-1.25h-5C12.73,10.75 12.47,10.6 12.34,10.36z"/>
  <path
      fill="currentColor"
      d="M16.4,4H3.6C2.72,4 2,4.72 2,5.6v3.65h5c0.27,0 0.53,0.15 0.66,0.39l0.84,1.54l2.34,-4.29c0.26,-0.48 1.05,-0.48 1.32,0l1.29,2.36H18V5.6C18,4.72 17.28,4 16.4,4z"/>
</svg>
