<svg xmlns="http://www.w3.org/2000/svg"
    width='512'
    heigth='512'
    viewport='0 0 512 512'
    
    >
  <path
      fill="currentColor"
      d="M8,10c0,1.1 0.9,2 2,2s2,-0.9 2,-2s-0.9,-2 -2,-2S8,8.9 8,10z"/>
  <path
      fill="currentColor"
      d="M7,7H4.83C5.86,5.21 7.79,4 10,4c2.61,0 4.82,1.67 5.65,4h1.06C15.85,5.11 13.17,3 10,3C7.44,3 5.22,4.39 4,6.44V4H3v4h4V7z"/>
  <path
      fill="currentColor"
      d="M13,12v1h2.17c-1.04,1.79 -2.96,3 -5.17,3c-2.61,0 -4.82,-1.67 -5.65,-4H3.29c0.86,2.89 3.54,5 6.71,5c2.56,0 4.78,-1.39 6,-3.44V16h1v-4H13z"/>
</svg>
