<svg xmlns="http://www.w3.org/2000/svg"
    width='512'
    heigth='512'
    viewport='0 0 512 512'
    
    >
  <path
      fill="currentColor"
      d="M2,13.86V16h12v-2.14c0,-1.9 -4,-2.86 -6,-2.86C6,11 2,11.96 2,13.86zM3,13.86C3,13.04 5.8,12 8,12c2.2,0 5,1.04 5,1.86V15H3V13.86z"/>
  <path
      fill="currentColor"
      d="M11,7c0,-1.66 -1.34,-3 -3,-3C6.34,4 5,5.34 5,7c0,1.66 1.34,3 3,3C9.66,10 11,8.66 11,7zM10,7c0,1.1 -0.9,2 -2,2S6,8.1 6,7s0.9,-2 2,-2S10,5.9 10,7z"/>
  <path
      fill="currentColor"
      d="M13,9l2,0l0,-2l1,0l0,2l2,0l0,1l-2,0l0,2l-1,0l0,-2l-2,0z"/>
</svg>
