<svg xmlns="http://www.w3.org/2000/svg"
    width='512'
    heigth='512'
    viewport='0 0 512 512'
    
    >
  <path
      fill="currentColor"
      d="M7.38,12c0,0.82 0.68,1.5 1.5,1.5h2.25c0.82,0 1.5,-0.68 1.5,-1.5V8c0,-0.82 -0.68,-1.5 -1.5,-1.5H8.88c-0.82,0 -1.5,0.68 -1.5,1.5V12zM11.12,12H8.88V8h2.25V12zM1.5,12h3v-1.25H3c-0.83,0 -1.5,-0.67 -1.5,-1.5V8c0,-0.83 0.67,-1.5 1.5,-1.5h3V8H3v1.25h1.5c0.83,0 1.5,0.67 1.5,1.5V12c0,0.83 -0.67,1.5 -1.5,1.5h-3V12zM14,12h3v-1.25h-1.5c-0.83,0 -1.5,-0.67 -1.5,-1.5V8c0,-0.83 0.67,-1.5 1.5,-1.5h3V8h-3v1.25H17c0.83,0 1.5,0.67 1.5,1.5V12c0,0.83 -0.67,1.5 -1.5,1.5h-3V12z"/>
</svg>
