<svg xmlns="http://www.w3.org/2000/svg"
    width='512'
    heigth='512'
    viewport='0 0 512 512'
    
    >
  <path
      fill="currentColor"
      d="M3.33,16l7.67,0l0,-3l-7,0z"/>
  <path
      fill="currentColor"
      d="M13,16l7.67,0l-0.67,-3l-7,0z"/>
  <path
      fill="currentColor"
      d="M21.11,18l-8.11,0l0,4l9,0z"/>
  <path
      fill="currentColor"
      d="M2,22l9,0l0,-4l-8.11,0z"/>
  <path
      fill="currentColor"
      d="M11,8h2v3h-2z"/>
  <path
      fill="currentColor"
      d="M15.764,7.205l1.414,-1.414l2.121,2.121l-1.414,1.414z"/>
  <path
      fill="currentColor"
      d="M4.705,7.913l2.121,-2.121l1.414,1.414l-2.121,2.121z"/>
  <path
      fill="currentColor"
      d="M3,2h3v2h-3z"/>
  <path
      fill="currentColor"
      d="M18,2h3v2h-3z"/>
  <path
      fill="currentColor"
      d="M12,7c2.76,0 5,-2.24 5,-5H7C7,4.76 9.24,7 12,7z"/>
</svg>
