<svg xmlns="http://www.w3.org/2000/svg"
    width='512'
    heigth='512'
    viewport='0 0 512 512'
    
    >
  <path
      fill="currentColor"
      d="M10.75,6.04V3h-1.5v3.05C5.75,6.43 3.11,9.52 3,13.08C3.04,13.59 3.47,14 4,14h3c0,1.66 1.34,3 3,3s3,-1.34 3,-3h3c0.55,0 1,-0.45 1,-1C17,9.39 14.26,6.42 10.75,6.04zM4.55,12.5c0.36,-2.77 2.58,-4.92 5.28,-5c0.06,0 0.11,0 0.17,0c2.86,0 5.22,2.2 5.48,5H4.55z"/>
  <path
      fill="currentColor"
      d="M3,13.29c0,-0.07 0,-0.14 0,-0.21c0,-0.03 0,-0.05 0,-0.08V13.29z"/>
</svg>
