<svg xmlns="http://www.w3.org/2000/svg"
    width='512'
    heigth='512'
    viewport='0 0 512 512'
    
    >
  <path
      fill="currentColor"
      d="M16.5,3h-13C2.67,3 2,3.67 2,4.5V13c0,0.83 0.67,1.5 1.5,1.5h13c0.83,0 1.5,-0.67 1.5,-1.5V4.5C18,3.67 17.33,3 16.5,3zM9.25,5.5h1.5V7h-1.5V5.5zM9.25,8h1.5v1.5h-1.5V8zM6.88,5.5h1.5V7h-1.5V5.5zM6,9.5H4.5V8H6V9.5zM6,7H4.5V5.5H6V7zM6.88,8h1.5v1.5h-1.5V8zM13,12H7v-1.5h6V12zM13.12,9.5h-1.5V8h1.5V9.5zM13.12,7h-1.5V5.5h1.5V7zM15.5,9.5H14V8h1.5V9.5zM15.5,7H14V5.5h1.5V7z"/>
  <path
      fill="currentColor"
      d="M10,19l3,-3l-6,0z"/>
</svg>
