<svg xmlns="http://www.w3.org/2000/svg"
    width='512'
    heigth='512'
    viewport='0 0 512 512'
    
    >
  <path
      fill="currentColor"
      d="M20,12m-2,0a2,2 0,1 1,4 0a2,2 0,1 1,-4 0"/>
  <path
      fill="currentColor"
      d="M4,12m-2,0a2,2 0,1 1,4 0a2,2 0,1 1,-4 0"/>
  <path
      fill="currentColor"
      d="M12,20m-2,0a2,2 0,1 1,4 0a2,2 0,1 1,-4 0"/>
  <path
      fill="currentColor"
      d="M10.05,8.59L6.03,4.55h-0.01l-0.31,-0.32 -1.42,1.41 4.02,4.05 0.01,-0.01 0.31,0.32zM13.943,8.617l4.405,-4.392L19.76,5.64l-4.405,4.393zM10.01,15.36l-1.42,-1.41 -4.03,4.01 -0.32,0.33 1.41,1.41 4.03,-4.02zM19.76,18.3l-3.99,-4.01 -0.36,-0.35L14,15.35l3.99,4.01 0.35,0.35z"/>
  <path
      fill="currentColor"
      d="M12,4m-2,0a2,2 0,1 1,4 0a2,2 0,1 1,-4 0"/>
</svg>
