<svg xmlns="http://www.w3.org/2000/svg"
    width='512'
    heigth='512'
    viewport='0 0 512 512'
    
    >
  <path
      fill="currentColor"
      d="M3.5,8.5H18v-3C18,4.67 17.33,4 16.5,4h-3L15,7h-2l-1.5,-3H10l1.5,3h-2L8,4H6.5L8,7H6L4.5,4h-1C2.67,4 2,4.67 2,5.5v9C2,15.33 2.67,16 3.5,16H10v-1.5H3.5V8.5z"/>
  <path
      fill="currentColor"
      d="M11.5,15.23l0,1.77l1.77,0l4.17,-4.17l-1.77,-1.77z"/>
  <path
      fill="currentColor"
      d="M18.85,10.71l-1.06,-1.06c-0.2,-0.2 -0.51,-0.2 -0.71,0l-0.71,0.71l1.77,1.77l0.71,-0.71C19.05,11.22 19.05,10.9 18.85,10.71z"/>
</svg>
